<?xml version="1.0" encoding="UTF-8" standalone="no"?>
<svg width="64px" height="22px" viewBox="0 0 64 22" version="1.1" xmlns="http://www.w3.org/2000/svg" xmlns:xlink="http://www.w3.org/1999/xlink" xmlns:sketch="http://www.bohemiancoding.com/sketch/ns">
    <!-- Generator: Sketch 3.3.3 (12072) - http://www.bohemiancoding.com/sketch -->
    <title>etho_black</title>
    <desc>Created with Sketch.</desc>
    <defs></defs>
    <g id="Page-1" stroke="none" stroke-width="1" fill="none" fill-rule="evenodd" sketch:type="MSPage">
        <g id="Desktop-HD" sketch:type="MSArtboardGroup" transform="translate(-440.000000, -285.000000)" fill="#000000">
            <path d="M444.192171,300.814199 C444.701818,302.540798 445.898752,303.388966 447.782975,303.388966 C448.950421,303.388966 449.758653,303.024828 450.207671,302.296552 L454.548176,302.296552 C453.799813,305.088276 451.075772,306.878621 447.693171,306.878621 C445.418148,306.878621 443.562208,306.150345 442.125351,304.724138 C440.718428,303.297931 440,301.477241 440,299.292414 C440,297.077241 440.688494,295.286897 442.095416,293.86069 C443.502339,292.434483 445.358279,291.706207 447.633302,291.706207 C449.668849,291.706207 451.345182,292.373793 452.692236,293.73931 C454.039289,295.104828 454.727783,296.834483 454.727783,298.988966 C454.727783,299.808276 454.697848,300.415172 454.637979,300.809655 L445.27807,300.809655 C445.168698,300.355092 445.019007,299.650136 445.019007,299.1967 C445.019007,298.854209 445.115309,298.31404 445.209866,297.866207 L450.596819,297.866207 C450.357343,296.166897 449.219832,295.165517 447.513564,295.165517 C445.717493,295.165517 444.579981,296.075862 444.130964,297.866207 L444.139514,297.866207 C444.125689,297.951627 443.987698,298.816126 443.999878,299.216932 C444.01566,299.736278 444.1875,300.8125 444.1875,300.8125 L444.192167,300.814197 Z M466.324755,292.009655 L468.377923,292.009655 L468.377923,295.56 L463.199252,295.56 L463.199252,300.718621 C463.199252,302.326897 464.037418,303.115862 465.713751,303.115862 C466.342376,303.115862 467.150608,302.994483 468.138447,302.721379 L468.677268,306.332414 C467.270346,306.787586 465.983162,307 464.815716,307 C461.343312,307 459.068288,304.511724 459.068288,300.748966 L459.068288,295.56 L456.044902,295.56 L456.044902,292.009655 L456.324755,292.009655 L456.324755,292.025535 L466.324755,292.025535 L466.324755,292.009655 Z M463.199252,291.000367 L463.199252,286.82069 L459.068288,286.82069 L459.068288,291.000367 L463.199252,291.000367 Z M476.499225,292.37582 C477.469173,291.824077 478.517994,291.554483 479.633302,291.554483 C481.519177,291.554483 483.045837,292.191724 484.183349,293.466207 C485.350795,294.74069 485.919551,296.44 485.919551,298.564138 L485.919551,306.544828 L481.758653,306.544828 L481.758653,298.928276 C481.758653,296.622069 480.621141,295.377931 478.675398,295.377931 C477.922329,295.377931 477.196939,295.658497 476.499225,296.219629 L476.499225,292.37582 Z M475.532273,289 L475.532273,285 L471.371375,285 L471.371375,306.544828 L475.532273,306.544828 L475.532273,299 L475.517904,299 L475.517904,289 L475.532273,289 Z M495.846103,303.202317 L495.846103,306.98621 C493.863677,306.879688 492.209009,306.156009 490.858746,304.815172 C489.391955,303.358621 488.673527,301.507586 488.673527,299.292414 C488.673527,297.077241 489.391955,295.286897 490.858746,293.86069 C492.209009,292.547788 493.863677,291.826328 495.846103,291.719981 L495.846103,291.719981 L495.846103,295.502101 C493.983144,295.74429 492.774556,297.288636 492.774556,299.292414 C492.774556,301.324022 493.983144,302.947246 495.846103,303.202317 Z M496.827424,295.495557 L496.827424,291.717244 C498.809652,291.813315 500.480101,292.535903 501.81478,293.86069 C503.281572,295.286897 504,297.077241 504,299.292414 C504,301.507586 503.281572,303.358621 501.81478,304.815172 C500.480101,306.168146 498.809652,306.892739 496.827424,306.988952 L496.827424,306.988952 L496.827424,303.20921 C498.692991,302.978022 499.898971,301.343305 499.898971,299.292414 C499.898971,297.269617 498.692991,295.715016 496.827424,295.495557 Z" id="etho_black" sketch:type="MSShapeGroup"></path>
        </g>
    </g>
</svg>