<?xml version="1.0" encoding="UTF-8" standalone="no"?>
<svg width="64px" height="23px" viewBox="0 0 64 23" version="1.1" xmlns="http://www.w3.org/2000/svg" xmlns:xlink="http://www.w3.org/1999/xlink" xmlns:sketch="http://www.bohemiancoding.com/sketch/ns">
    <!-- Generator: Sketch 3.3.3 (12072) - http://www.bohemiancoding.com/sketch -->
    <title>etho_white</title>
    <desc>Created with Sketch.</desc>
    <defs></defs>
    <g id="Page-1" stroke="none" stroke-width="1" fill="none" fill-rule="evenodd" sketch:type="MSPage">
        <g id="Desktop-HD" sketch:type="MSArtboardGroup" transform="translate(-29.000000, -48.000000)" fill="#FFFFFF">
            <path d="M33.1921715,64.4581987 C33.7018177,66.1847983 34.8987521,67.0329655 36.7829747,67.0329655 C37.950421,67.0329655 38.7586529,66.6688276 39.2076707,65.9405517 L43.5481759,65.9405517 C42.7998129,68.7322759 40.0757717,70.5226207 36.6931712,70.5226207 C34.4181478,70.5226207 32.5622077,69.7943448 31.1253508,68.3681379 C29.7184284,66.941931 29,65.1212414 29,62.9364138 C29,60.7212414 29.6884939,58.9308966 31.0954163,57.5046897 C32.5023386,56.0784828 34.3582788,55.3502069 36.6333022,55.3502069 C38.6688494,55.3502069 40.3451824,56.0177931 41.6922357,57.3833103 C43.0392891,58.7488276 43.727783,60.4784828 43.727783,62.6329655 C43.727783,63.4522759 43.6978485,64.0591724 43.6379794,64.4536552 L34.2780705,64.4536552 C34.168698,63.999092 34.0190074,63.2941357 34.0190074,62.8407 C34.0190074,62.4982087 34.1153093,61.9580398 34.2098661,61.5102069 L39.5968195,61.5102069 C39.3573433,59.8108966 38.2198316,58.8095172 36.5135641,58.8095172 C34.717493,58.8095172 33.5799813,59.7198621 33.1309635,61.5102069 L33.139514,61.5102069 C33.125689,61.5956272 32.9876983,62.4601264 32.9998783,62.8609317 C33.0156605,63.3802781 33.1875,64.4564999 33.1875,64.4564999 L33.1921667,64.4581969 Z M55.3247546,55.6536552 L57.3779233,55.6536552 L57.3779233,59.204 L52.1992516,59.204 L52.1992516,64.3626207 C52.1992516,65.9708966 53.0374181,66.7598621 54.7137512,66.7598621 C55.3423761,66.7598621 56.150608,66.6384828 57.1384471,66.3653793 L57.6772685,69.9764138 C56.2703461,70.4315862 54.9831618,70.644 53.8157156,70.644 C50.3433115,70.644 48.0682881,68.1557241 48.0682881,64.3929655 L48.0682881,59.204 L45.0449018,59.204 L45.0449018,55.6536552 L45.3247546,55.6536552 L45.3247546,55.6695353 L55.3247546,55.6695353 L55.3247546,55.6536552 Z M52.1992516,54.6443671 L52.1992516,50.4646897 L48.0682881,50.4646897 L48.0682881,54.6443671 L52.1992516,54.6443671 Z M65.499225,56.0198198 C66.469173,55.4680765 67.517994,55.1984828 68.6333022,55.1984828 C70.5191768,55.1984828 72.0458372,55.8357241 73.1833489,57.1102069 C74.3507951,58.3846897 74.919551,60.084 74.919551,62.2081379 L74.919551,70.1888276 L70.7586529,70.1888276 L70.7586529,62.5722759 C70.7586529,60.266069 69.6211413,59.021931 67.6753976,59.021931 C66.9223295,59.021931 66.1969386,59.3024971 65.499225,59.8636293 L65.499225,56.0198198 Z M64.5322732,52.644 L64.5322732,48.644 L60.3713751,48.644 L60.3713751,70.1888276 L64.5322732,70.1888276 L64.5322732,62.644 L64.5179041,62.644 L64.5179041,52.644 L64.5322732,52.644 Z M84.8461029,55.3639812 C82.8636769,55.4703275 81.2090088,56.1917876 79.8587465,57.5046897 C78.3919551,58.9308966 77.6735267,60.7212414 77.6735267,62.9364138 C77.6735267,65.1515862 78.3919551,67.0026207 79.8587465,68.4591724 C81.2090088,69.8000085 82.8636769,70.5236879 84.8461029,70.6302105 L84.8461029,66.8463173 C82.9831442,66.5912459 81.7745557,64.9680223 81.7745557,62.9364138 C81.7745557,60.9326356 82.9831442,59.3882903 84.8461029,59.1461005 L84.8461029,55.3639812 Z M85.8274238,70.6329515 C87.8096517,70.5367388 89.4801011,69.8121458 90.8147802,68.4591724 C92.2815716,67.0026207 93,65.1515862 93,62.9364138 C93,60.7212414 92.2815716,58.9308966 90.8147802,57.5046897 C89.4801011,56.1799032 87.8096517,55.4573146 85.8274238,55.3612445 L85.8274238,59.1395572 C87.6929909,59.3590164 88.898971,60.9136174 88.898971,62.9364138 C88.898971,64.9873046 87.6929909,66.6220216 85.8274238,66.8532095 L85.8274238,70.6329515 Z" id="etho_white" sketch:type="MSShapeGroup"></path>
        </g>
    </g>
</svg>